<?xml version="1.0" encoding="iso-8859-1"?>
<!-- Uploaded to: SVG Repo, www.svgrepo.com, Generator: SVG Repo Mixer Tools -->
<svg fill="#000000" height="800px" width="800px" version="1.1" id="Layer_1" xmlns="http://www.w3.org/2000/svg" xmlns:xlink="http://www.w3.org/1999/xlink" 
	 viewBox="0 0 512 512" xml:space="preserve">
<g>
	<g>
		<path d="M492.505,19.51C479.922,6.928,463.194,0,445.401,0c-17.794,0-34.522,6.929-47.103,19.511L55.837,361.972l-2.395,2.394
			l-18.404,50.858L0.015,512l96.776-35.023l50.858-18.404l344.856-344.857C518.478,87.745,518.478,45.484,492.505,19.51z
			 M50.709,461.306l3.647-10.077l6.431,6.431L50.709,461.306z M92.374,446.228l-26.587-26.587l6.965-19.246l38.869,38.869
			L92.374,446.228z M139.29,423.916l-51.191-51.191l250.704-250.703l51.19,51.19L139.29,423.916z M411.501,151.704l-51.19-51.19
			l8.695-8.695l51.19,51.19L411.501,151.704z M470.996,92.208L441.705,121.5l-51.19-51.19l29.292-29.292
			c6.836-6.835,15.925-10.6,25.594-10.6c9.67,0,18.759,3.765,25.596,10.601C485.11,55.132,485.11,78.095,470.996,92.208z"/>
	</g>
</g>
</svg>